<svg xmlns="http://www.w3.org/2000/svg" viewBox="0 0 113.84 82.97"><defs><style>.cls-1{fill:#416fff;}</style></defs><title>binlogosvg</title><g id="Layer_2" data-name="Layer 2"><g id="Layer_1-2" data-name="Layer 1"><path class="cls-1" d="M4.66,57.17V57"/><path class="cls-1" d="M85.07,10.2c-7.2-1.81-13.89-.86-19.91,3.65-.24-.27-.06-.49,0-.7a7.82,7.82,0,0,0-.08-4.29,6,6,0,0,1,.58-5C67.63.5,72.86-1,76.24.83a4.68,4.68,0,0,1,2.62,4.6c0,.65.17.88.76,1.07a12.35,12.35,0,0,1,4.89,2.83C84.74,9.56,85,9.74,85.07,10.2Z"/><path class="cls-1" d="M28.43,10.27A11.52,11.52,0,0,1,33.88,6.6c.74-.27,1.11-.48,1.06-1.39-.12-2.49,1.58-4.39,4.32-5a8.24,8.24,0,0,1,9.49,5.39,3,3,0,0,1,.11,1.78,9.89,9.89,0,0,0-.13,6.47C42.56,9.37,35.84,8.35,28.43,10.27Z"/><path class="cls-1" d="M113.26,52.79a18.21,18.21,0,0,0-3.1-7.35c-1.15-1.51-2.21-3.1-3.29-4.66-2.21-3.21-4.4-6.43-6.62-9.64-2.8-4.05-5.65-8.06-8.41-12.14a13.32,13.32,0,0,0-4.62-4.37c-5.5-3-11.12-2.9-16.75-.39a12.79,12.79,0,0,0-6.22,5.47,14.13,14.13,0,0,0-.75,3c-.08.23-.08.54-.34.6s-.38-.24-.51-.43a18.2,18.2,0,0,0-2.24-2.95,5,5,0,0,0-6.89.16,32.24,32.24,0,0,0-2.32,2.89c-.35.46-.6.47-.75-.12-.05-.21-.09-.42-.12-.62a8.77,8.77,0,0,0-3.58-5.8A18.53,18.53,0,0,0,30,13.14,12.44,12.44,0,0,0,23,17.53C20.19,21.26,17.64,25.2,15,29c-3.6,5.15-7,10.43-10.71,15.5A19.84,19.84,0,0,0,.77,51.83,9.8,9.8,0,0,1,0,54.93v.91a.4.4,0,0,1,0,.54v4.36c.34.36.28.83.35,1.26A24.57,24.57,0,0,0,5.41,73.66a23.67,23.67,0,0,0,15.44,9A23.73,23.73,0,0,0,36.06,80.1c7-3.8,11.11-9.78,12.66-17.55.55-2.72.28-5.49.43-8.24.14-2.54,1-5,3.43-6.08a10.42,10.42,0,0,1,8.49,0c2.51,1.08,3.42,3.48,3.59,6.07.15,2.23,0,4.48.22,6.72a24.27,24.27,0,0,0,8.6,16.18,23.5,23.5,0,0,0,20.63,5.22c8.36-1.68,14.23-6.68,17.63-14.43A24.39,24.39,0,0,0,113.26,52.79ZM25,76A18.07,18.07,0,1,1,43.15,58,18,18,0,0,1,25,76Zm64.29-1.17a17.38,17.38,0,1,1,17.5-17.32A17.47,17.47,0,0,1,89.33,74.79Z"/><path class="cls-1" d="M56.73,39.76c-1.88-.15-3.64-.49-4.87-2.07a1.9,1.9,0,0,1,.35-2.87,6.72,6.72,0,0,1,9.19,0,2.15,2.15,0,0,1-.24,3.43A7.27,7.27,0,0,1,56.73,39.76Z"/></g></g></svg>